<?xml version="1.0" encoding="UTF-8"?>
<svg xmlns="http://www.w3.org/2000/svg" clip-rule="evenodd" fill-rule="evenodd" height="512" image-rendering="optimizeQuality" shape-rendering="geometricPrecision" text-rendering="geometricPrecision" viewBox="0 0 2.83333 2.83333" width="512">
  <g id="Layer_x0020_1">
    <circle cx="1.417" cy="1.417" fill="#ff7e65" r="1.417"></circle>
    <path d="m1.19922 1.91739h-.141358c-.0110315 0-.0199843-.00896063-.0199843-.0199843v-.293205c0-.0083937.00524409-.0159016.0131457-.0187756.0412402-.0150276.0838701-.0226654.126728-.0226654l.0214528.00000787c.0110276 0 .0199843.00896457.0199843.0199843v.314638c.00001575.0110472-.00894094.02-.0199685.02zm-.121374-.0399803h.10139v-.274661h-.00147244c-.0336535 0-.0671969.0052874-.0999016.0157362v.258925h-.00001575z"></path>
    <path d="m1.77499 1.91739h-.141354c-.0110315 0-.0199843-.00896063-.0199843-.0199843v-.314638c0-.0110315.00896457-.0199843.0199843-.0199843h.0216772c.0427677 0 .0853307.0076063.12652.0225787.0078937.00287402.0131535.0103819.0131535.0187874v.293268c-.00001181.0110197-.00896457.0199724-.0199961.0199724zm-.121374-.0399803h.101394v-.258984c-.0326575-.0104213-.066126-.0156811-.0997087-.0156811l-.00168504.00000394v.274661z"></path>
    <path d="m1.84547 2.26998h-.422181-.00008268-.00008268-.00008268-.435472c-.0110315 0-.0199843-.00896457-.0199843-.0199843v-.352594c0-.0110276.00895276-.0199803.0199843-.0199803h.438445c.00070079-.00003543.00140157-.00003543.0021063 0h.41735c.0110315 0 .0199843.00896063.0199843.0199803v.352594c.00000787.0110315-.00895276.0199843-.0199843.0199843zm-.442165-.0399803v-.0866063h-.127406c-.00736614 0-.0141535-.00406693-.017622-.0105748s-.00307874-.0143937.00101181-.0205236l.130374-.194909h-.38211v.312614h.395752zm.0440433-.312618.00130315.0907835.108476.00000787c.00721654 0 .0138622.00388583.0174016.0101575.00355118.00627559.00342913.0139724-.00029528.0201535l-.115579.191516h.366831v-.312618h-.378138zm-.134035.186043h.109976c.0110315 0 .0199843.00896457.0199843.0199843v.0547756l.0784646-.130031-.0927835-.00000394c-.0109213 0-.0198307-.00878346-.0199843-.0197047l-.00096063-.066626-.0946969.141606z"></path>
    <path d="m1.10689 2.07022c-.0357795 0-.0648661-.0291024-.0648661-.0648661 0-.0357638.0290984-.064874.0648661-.064874.0357638 0 .0648622.0291142.0648622.064874s-.0291024.0648661-.0648622.0648661zm0-.0897598c-.0137283 0-.0249016.0111732-.0249016.0248976 0 .0137283.0111732.0248819.0249016.0248819.0137244 0 .0248976-.0111535.0248976-.0248819 0-.0137244-.0111732-.0248976-.0248976-.0248976z"></path>
    <path d="m1.72617 2.07022c-.0357598 0-.064878-.0291024-.064878-.0648661 0-.0357638.0291181-.064874.064878-.064874.0357598 0 .064874.0291142.064874.064874s-.0291102.0648661-.064874.0648661zm0-.0897598c-.0137283 0-.0248976.0111732-.0248976.0248976 0 .0137283.0111693.0248819.0248976.0248819.0137244 0 .0248976-.0111535.0248976-.0248819 0-.0137244-.0111732-.0248976-.0248976-.0248976z"></path>
    <path d="m.967587 2.23v-.111488h-.237909c-.00529528.0361614-.00845276.0734173-.00927165.111488h.247181z" fill="#feb593"></path>
    <path d="m1.07784 1.87741h.10139v-.274661h-.00147244c-.0336535 0-.0671969.0052874-.0999016.0157362l-.00001575.258925z" fill="#f0f0f0"></path>
    <path d="m1.65361 1.60274v.274661h.101394v-.258984c-.0326575-.0104213-.066126-.0156811-.0997087-.0156811l-.00168504.00000394z" fill="#f0f0f0"></path>
    <path d="m1.40897 2.02844-.00096063-.066626-.0946969.141606h.109976c.0110315 0 .0199843.00896457.0199843.0199843v.0547756l.0784646-.130031-.0927835-.00000394c-.0109213 0-.0198307-.00878346-.0199843-.0197047z" fill="#6b809b"></path>
    <path d="m1.4186 1.51264c-.157886 0-.280087-.159547-.329185-.311244-.0486535-.0207165-.0830039-.0714843-.0830039-.124622 0-.0515394.0298504-.102843.0742874-.127642.00298425-.00166535.00633858-.00253543.00974016-.00253543h.656319c.00341732 0 .00676378.00087402.00974016.00253543.044437.024815.0743031.0761063.0743031.127642 0 .0531535-.0343622.103913-.0830039.124622-.0491063.151697-.171327.311244-.329197.311244zm-.322677-.526079c-.029378.0186102-.0495433.0549567-.0495433.0902047 0 .0392717.0281299.0781299.0654331.0903819.00617323.00202362.0109921.00693701.012874.0131693.0428504.140803.153098.292339.293909.292339.140803 0 .251055-.151543.293909-.292339.00189764-.00621654.00670079-.0111299.0128898-.0131693.0373031-.012252.0654173-.0511142.0654173-.0903819 0-.035248-.0201535-.0715945-.0495433-.0902047h-.645346z"></path>
    <path d="m1.74702.986559c-.00005906 0-.00016929.00001575-.00027953 0h-.656299c-.00539764 0-.0105748-.00217717-.0143346-.00606299-.00375984-.00387008-.00579921-.0091063-.00564961-.0145039l.00056693-.0195236c.00001575-.00059843.00005906-.00119685.0001378-.00179134l.021374-.179157c.0166654-.139673.175701-.202189.325921-.202189.145492 0 .309634.0632795.326205.202205l.0213701.179157c.00007087.00059843.00012598.00119685.0001378.00179134l.00045669.0161969c.00025197.00126378.00037008.00256299.00037008.0038937.00002362.0110354-.00892913.0199843-.0199764.0199843zm-.635835-.0399646h.614839l-.0210354-.176327c-.013685-.114724-.158122-.166969-.286531-.166969-.128264 0-.272551.052248-.286248.166972l-.0210236.176323z"></path>
    <path d="m1.62937 1.11378c-.0120906 0-.0250354-.00295669-.0414094-.00670079-.032378-.00739764-.0813071-.0185669-.170165-.0185669-.0888425 0-.137783.011185-.170177.0185669-.0163898.00374409-.0293268.00670079-.0414094.00670079-.0382205 0-.0557441-.0253386-.113823-.109299l-.0183622-.0264921c-.00424803-.0061063-.00474409-.0140709-.00129134-.0206654.00344094-.00659449.0102717-.0107165.0177087-.0107165l.654689.00000787c.00744094 0 .014252.00412992.0177087.0107126.00344094.00659449.00294094.0145551-.00130709.0206654l-.0182874.0264094c-.0581142.0840079-.0756457.109362-.113874.109378zm-.211591-.0652362c.0933583 0 .144937.0117795.179075.0195787.0144764.00330709.0249252.00570079.0325157.00569291.0162795 0 .0288622-.0168228.0776142-.087248l-.578398-.00000394c.0487362.0704291.0613425.0872441.0776063.0872441.00759055 0 .0180433-.00238583.0325118-.00568898.0341417-.00779528.0857205-.0195748.179075-.0195748z"></path>
    <path d="m2.13312 2.26998c-.00006693.00001575-.00017717.00001575-.00027559 0h-1.43265c-.0110315 0-.0199843-.00896457-.0199843-.0199843 0-.378933.223189-.687217.497531-.687217h.0806457c.0110315 0 .0199843.00896457.0199843.0199843 0 .0669724.0619724.121453.138146.121453.0761732 0 .138138-.0544882.138138-.121453 0-.0110315.00896457-.0199843.0199843-.0199843h.0806535c.27352 0 .496197.30648.497528.683846.00019291.00109449.00029528.00221654.00029528.00337008-.00001181.0110315-.00894882.0199843-.0199961.0199843zm-1.41272-.0399803h1.39225c-.00749606-.347685-.209783-.62726-.457358-.62726l-.0620354.00000394c-.010878.0796142-.0859961.141437-.17674.141437-.0907441 0-.165862-.0618228-.176756-.141437h-.0620157c-.247575 0-.449854.279587-.457343.627256z"></path>
    <path d="m1.25839 1.60274c-.0110315 0-.0199843-.00896063-.0199843-.0199803v-.153571c0-.0110276.00895276-.0199803.0199843-.0199803.0110315 0 .0199843.00895276.0199843.0199803v.153571c0 .0110276-.00893701.0199803-.0199843.0199803z"></path>
    <path d="m1.5788 1.60274c-.0110276 0-.0199803-.00896063-.0199803-.0199803v-.153571c0-.0110276.00896063-.0199803.0199803-.0199803.0110197 0 .0199843.00895276.0199843.0199803v.153571c.00001575.0110276-.00894882.0199803-.0199843.0199803z"></path>
    <path d="m2.11841 2.11851h-.272937c-.0110315 0-.0199843-.00896457-.0199843-.0199843 0-.0110197.00896457-.0199843.0199843-.0199843h.272937c.0110315 0 .0199843.00896457.0199843.0199843 0 .0110197-.00895276.0199843-.0199843.0199843zm-1.13084 0h-.274882c-.0110276 0-.0199803-.00896457-.0199803-.0199843 0-.0110197.00895276-.0199843.0199803-.0199843h.274882c.0110276 0 .0199843.00896457.0199843.0199843 0 .0110197-.00894882.0199843-.0199843.0199843z"></path>
    <path d="m1.42331.92274c-.00172047 0-.00345669-.00022047-.00517717-.00068504-.00874016-.00234252-.0148071-.010252-.0148071-.0192992v-.0717874h-.0822677c-.00729921 0-.0140276-.00398425-.0175276-.0103976-.00349606-.00640945-.00323228-.0142087.00069291-.0203701l.104874-.163866c.00474803-.00743701.0137953-.010878.0223031-.00843701.00848819.00241339.014374.0101181.0145.0189449l.00102756.0751024.0692205.00000394c.00714567 0 .0137362.00380315.0173031.00999213.00356693.00618898.00356693.013811 0 .0199843l-.0928425.160827c-.00362992.00629528-.0102913.00998819-.0172992.00998819zm-.0657402-.131724h.0657402c.0110315 0 .0199843.00895276.0199843.0199843v.0171929l.0382638-.0662638h-.0543189c-.010937 0-.0198307-.0087874-.0199843-.0197087l-.00038583-.0282126-.0492992.0770079z"></path>
    <path d="m1.44329.828193.0382638-.0662638h-.0543189c-.010937 0-.0198307-.0087874-.0199843-.0197087l-.00038583-.0282126-.0492992.0770079h.0657402c.0110315 0 .0199843.00895276.0199843.0199843v.0171929z" fill="#fbac00"></path>
    <path d="m1.53345.751925-.0928425.160827c-.00362992.00629528-.0102913.00998819-.0172992.00998819-.00172047 0-.00345669-.00022047-.00517717-.00068504-.00874016-.00234252-.0148071-.010252-.0148071-.0192992v-.0717874h-.0822677c-.00729921 0-.0140276-.00398425-.0175276-.0103976-.00349606-.00640945-.00323228-.0142087.00069291-.0203701l.104874-.163866c.00474803-.00743701.0137953-.010878.0223031-.00843701.00848819.00241339.014374.0101181.0145.0189449l.00102756.0751024.0692205.00000394c.00714567 0 .0137362.00380315.0173031.00999213.00356693.00618898.00356693.013811 0 .0199843zm-.42226.194669h.614839l-.0210354-.176327c-.013685-.114724-.158122-.166969-.286531-.166969-.128264 0-.272551.052248-.286248.166972l-.0210236.176323z" fill="#fbc946"></path>
    <path d="m1.70699.986563-.578398-.00000394c.0487362.0704291.0613425.0872441.0776063.0872441.00759055 0 .0180433-.00238583.0325118-.00568898.0341417-.00779528.0857205-.0195748.179075-.0195748.0933583 0 .144937.0117795.179075.0195787.0144764.00330709.0249252.00570079.0325157.00569291.0162795 0 .0288622-.0168228.0776142-.087248z" fill="#fbac00"></path>
    <path d="m1.58796 1.10707c-.032378-.00739764-.0813071-.0185669-.170165-.0185669-.0888425 0-.137783.011185-.170177.0185669-.0163898.00374409-.0293268.00670079-.0414094.00670079-.0382205 0-.0557441-.0253386-.113823-.109299l-.0070315-.0101417c-.0235394.0199055-.0389764.0515866-.0389764.0824291 0 .0392717.0281299.0781299.0654331.0903819.00617323.00202362.0109921.00693701.012874.0131693.0259882.0853898.0767638.174732.14411.231823.00166535.00101575.00316929.00227165.00446457.00371654.0426772.0348937.0917992.0567992.145335.0567992.0535433 0 .102665-.0219134.145346-.056815.0012874-.00143307.00277953-.00267717.00442913-.00368898.0673583-.0570945.118142-.146441.144134-.231835.00189764-.00621654.00670079-.0111299.0128898-.0131693.0373031-.012252.0654173-.0511142.0654173-.0903819 0-.0312874-.0158819-.0634409-.0400039-.0832874l-.00756299.0109213c-.0581142.0840079-.0756457.109362-.113874.109378-.0120906 0-.0250354-.00295669-.0414094-.00670079z" fill="#fec9a3"></path>
    <path d="m1.55882 1.46856c-.0422047.0275197-.0893622.0440748-.140217.0440748-.0508622 0-.0980236-.0165591-.140228-.0440787v.114205c0 .0669724.0619724.121453.138146.121453.0761732 0 .138138-.0544882.138138-.121453 0-.00459055.00155512-.00882283.00416142-.0122008v-.102z" fill="#fec9a3"></path>
    <g fill="#0a5078">
      <path d="m1.03787 1.87742v-.243756c-.146165.0665315-.260484.234429-.301394.444878h.231106v-.181142c0-.0110276.00895276-.0199803.0199843-.0199803h.0503031z"></path>
      <path d="m1.21919 1.60274v.274677h.206815c.00070866-.00003937.00142126-.00003937.00213386 0h.185516v-.274677h-.0203898c-.010878.0796142-.0859961.141437-.17674.141437-.0907441 0-.165862-.0618228-.176756-.141437h-.0205787z"></path>
      <path d="m1.79498 1.63358v.243843h.0504882c.0110315 0 .0199843.00896063.0199843.0199803v.181142h.231118c-.0409291-.210547-.155335-.378492-.301591-.444965z"></path>
    </g>
    <path d="m2.10338 2.11851h-.237925v.111488h.247197c-.0008189-.0380709-.00397638-.0753268-.00927165-.111488z" fill="#feb593"></path>
    <path d="m1.08199 2.00535c0 .0137283.0111732.0248819.0249016.0248819.0137244 0 .0248976-.0111535.0248976-.0248819 0-.0137244-.0111732-.0248976-.0248976-.0248976-.0137283 0-.0249016.0111732-.0249016.0248976z" fill="#0a5078"></path>
    <path d="m1.40801 1.96182-.0946969.141606h.109976c.0110315 0 .0199843.00896457.0199843.0199843v.0547756l.0784646-.130031-.0927835-.00000394c-.0109213 0-.0198307-.00878346-.0199843-.0197047l-.00096063-.066626z" fill="#0a5078"></path>
    <path d="m1.72617 1.98046c-.0137283 0-.0248976.0111732-.0248976.0248976 0 .0137283.0111693.0248819.0248976.0248819.0137244 0 .0248976-.0111535.0248976-.0248819 0-.0137244-.0111732-.0248976-.0248976-.0248976z" fill="#0a5078"></path>
    <path d="m1.66129 2.00535c0-.0357638.0291181-.064874.064878-.064874.0357598 0 .064874.0291142.064874.064874s-.0291102.0648661-.064874.0648661c-.0357598 0-.064878-.0291024-.064878-.0648661zm-.20263.22465h.366831v-.131472-.181146h-.0501102c-.00012992.00000394-.00025984.00000394-.00038976.00000394h-.141354c-.00011811 0-.00023228 0-.00035039-.00000394h-.185933l.00130315.0907835.108476.00000787c.00721654 0 .0138622.00388583.0174016.0101575.00355118.00627559.00342913.0139724-.00029528.0201535l-.115579.191516z" fill="#fbc946"></path>
    <path d="m1.25929 2.1123.130374-.194909h-.190449-.141358-.0503031v.181142.131472h.395752v-.0866063h-.127406c-.00736614 0-.0141535-.00406693-.017622-.0105748s-.00307874-.0143937.00101181-.0205236zm-.152402-.171819c.0357638 0 .0648622.0291142.0648622.064874s-.0291024.0648661-.0648622.0648661c-.0357795 0-.0648661-.0291024-.0648661-.0648661 0-.0357638.0290984-.064874.0648661-.064874z" fill="#fbc946"></path>
  </g>
</svg>
