<?xml version="1.0" encoding="UTF-8"?>
<svg xmlns="http://www.w3.org/2000/svg" height="512" viewBox="0 0 60 51" width="512">
  <g id="Page-1" fill="none" fill-rule="evenodd">
    <g id="002---Maintanence" fill-rule="nonzero" transform="translate(-1 -1)">
      <circle id="Oval" cx="31" cy="21" fill="#00bcd4" r="19"></circle>
      <path id="Shape" d="m31 2c-.506 0-1 .037-1.5.076 9.8781364.77398056 17.4992499 9.0155882 17.4992499 18.924s-7.6211135 18.1500194-17.4992499 18.924c.5.039.994.076 1.5.076 10.4934102 0 19-8.5065898 19-19s-8.5065898-19-19-19z" fill="#00838f"></path>
      <path id="Shape" d="m38.692 21h-4.692l1.619-12.949c.053848-.42988471-.1752482-.84554982-.5674619-1.02958501-.3922136-.1840352-.8583249-.09457667-1.1545381.22158501l-11.318 12.073c-.2725929.2907186-.3465429.7155418-.1882195 1.0812711.1583235.3657292.518692.6025368.9172195.6027289h4.692l-1.619 12.949c-.053848.4298847.1752482.8455498.5674619 1.029585.3922136.1840352.8583249.0945767 1.1545381-.221585l11.318-12.073c.2725929-.2907186.3465429-.7155418.1882195-1.0812711-.1583235-.3657292-.518692-.6025368-.9172195-.6027289z" fill="#ffdc00"></path>
      <path id="Shape" d="m32.133 21h1.867l1.619-12.949c.053848-.42988471-.1752482-.84554982-.5674619-1.02958501-.3922136-.1840352-.8583249-.09457667-1.1545381.22158501l-1.359 1.449-1.4 11.184c-.0356262.2850821.0530826.5717157.2435141.7868363.1904315.2151205.4641874.3379447.7514859.3371637z" fill="#fec108"></path>
      <path id="Shape" d="m38.692 21h-3c.3985275.0001921.758896.2369997.9172195.6027289.1583234.3657293.0843734.7905525-.1882195 1.0812711l-9.96 10.624-.08.641c-.053848.4298847.1752482.8455498.5674619 1.029585.3922136.1840352.8583249.0945767 1.1545381-.221585l11.318-12.073c.2725929-.2907186.3465429-.7155418.1882195-1.0812711-.1583235-.3657292-.518692-.6025368-.9172195-.6027289z" fill="#fec108"></path>
      <path id="Shape" d="m50.08 43 3-4h6.92c-1.4260822-2.4746109-4.0648821-3.9995287-6.921-3.9995287s-5.4949178 1.5249178-6.921 3.9995287h-30.316c-1.4260822-2.4746109-4.0648821-3.9995287-6.921-3.9995287-2.85611793 0-5.49491784 1.5249178-6.921 3.9995287h6.92l3 4-3 4h-6.92c1.42608216 2.4746109 4.06488207 3.9995287 6.921 3.9995287 2.8561179 0 5.4949178-1.5249178 6.921-3.9995287h30.316c1.4260822 2.4746109 4.0648821 3.9995287 6.921 3.9995287s5.4949178-1.5249178 6.921-3.9995287h-6.92z" fill="#9e9e9e"></path>
      <g fill="#707070">
        <path id="Shape" d="m57 39h3c-1.6763655-2.9712702-5.0771169-4.5230145-8.42-3.842 2.2801318.4298508 4.2593679 1.8328444 5.42 3.842z"></path>
        <path id="Shape" d="m49.78 39.4-2.25 3c-.2666667.3555556-.2666667.8444444 0 1.2l2.25 3c.1888544.2518058.4852427.4.8.4h2.5l-3-4 3-4h-2.5c-.3147573 0-.6111456.1481942-.8.4z"></path>
        <path id="Shape" d="m51.58 50.842c3.3428831.6810145 6.7436345-.8707298 8.42-3.842h-3c-1.1606321 2.0091556-3.1398682 3.4121492-5.42 3.842z"></path>
      </g>
      <path id="Shape" d="m18.907 35.675c.3724537-.4071569.3447074-1.0390555-.062-1.412-5.4763326-5.0138675-7.3121222-12.875842-4.6225233-19.7964738 2.6895989-6.92063173 9.3526269-11.47966928 16.7775233-11.47966928s14.0879244 4.55903755 16.7775233 11.47966928c2.6895989 6.9206318.8538093 14.7826063-4.6225233 19.7964738-.2779855.2373856-.4042908.607537-.3293969.9653342.0748938.3577972.3390507.6462174.6889064.7521837.3498557.1059664.7296531.012591.9904905-.2435179 6.0851252-5.5708276 8.1251772-14.3064642 5.136829-21.9962396-2.9883483-7.68977528-10.3918066-12.75553911-18.641829-12.75553911s-15.6534807 5.06576383-18.641829 12.75553911c-2.98834818 7.6897754-.9482962 16.425412 5.136829 21.9962396.4071569.3724537 1.0390555.3447074 1.412-.062z" fill="#000"></path>
      <path id="Shape" d="m26.524 35.883c.2689868.1296512.5634047.1979616.862.2.550189-.0025942 1.0744637-.2341156 1.447-.639l11.318-12.076c.5453098-.5815697.6931418-1.431455.37624-2.1630008s-1.0380035-1.2050135-1.83524-1.2049992h-3.559l1.478-11.825c.1071649-.85958072-.3512132-1.69044205-1.1354988-2.05821828-.7842857-.36777622-1.7161812-.18885791-2.3085012.44321828l-11.318 12.072c-.5453098.5815697-.6931418 1.431455-.37624 2.1630008s1.0380035 1.2050135 1.83524 1.2049992h3.559l-1.478 11.825c-.1167677.861208.3443182 1.6972562 1.135 2.058zm-3.216-15.883 11.318-12.073-1.618 12.949c-.0355602.2845624.05276.570697.2425222.7857099.1897623.2150129.4627022.3382092.7494778.3382901h4.692l-11.318 12.073 1.618-12.949c.0355602-.2845624-.05276-.570697-.2425222-.7857099-.1897623-.2150129-.4627022-.3382092-.7494778-.3382901z" fill="#000"></path>
      <path id="Shape" d="m2 46c-.35761825-.0007066-.68839235.1896133-.86750734.4991438-.17911498.3095305-.17930283.6911495-.00049266 1.0008562 1.55146042 2.6955631 4.38635532 4.397345 7.49484809 4.4991426 3.10849281.1017977 6.04865491-1.4108613 7.77315191-3.9991426h29.2c1.7248626 2.5864162 4.6639394 4.0977007 7.7710828 3.9959206 3.1071435-.1017801 5.9410161-1.8021681 7.4929172-4.4959206.178453-.3090879.1786463-.6898553.0005074-.9991243-.1781389-.3092689-.5076037-.5001532-.8645074-.5008757h-6.42l-2.25-3 2.25-3h6.42c.3576182.0007066.6883924-.1896133.8675073-.4991438.179115-.3095305.1793029-.6911495.0004927-1.0008562-1.5514604-2.6955631-4.3863553-4.397345-7.4948481-4.4991426-3.1084928-.1017977-6.0486549 1.4108613-7.7731519 3.9991426h-29.2c-1.7248626-2.5864162-4.6639394-4.0977007-7.77108283-3.9959206-3.10714344.1017801-5.94101606 1.8021681-7.49291717 4.4959206-.17845295.3090879-.17864632.6898553-.00050739.9991243.17813894.3092689.50760368.5001532.86450739.5008757h6.42l2.25 3-2.25 3zm7.72 1.6 3-4c.2666667-.3555556.2666667-.8444444 0-1.2l-3-4c-.18885438-.2518058-.4852427-.4-.8-.4h-4.895c1.54363575-1.5144882 3.70133232-2.2292301 5.84384901-1.9357883 2.14251669.2934419 4.02857499 1.5620216 5.10815099 3.4357883.1784495.309084.5081008.4996339.865.5h30.316c.3568992-.0003661.6865505-.190916.865-.5 1.079576-1.8737667 2.9656343-3.1423464 5.108151-3.4357883 2.1425167-.2934418 4.3002132.4213001 5.843849 1.9357883h-4.9c-.3147573 0-.6111456.1481942-.8.4l-3 4c-.2666667.3555556-.2666667.8444444 0 1.2l3 4c.1888544.2518058.4852427.4.8.4h4.9c-1.5436358 1.5144882-3.7013323 2.2292301-5.843849 1.9357883-2.1425167-.2934419-4.028575-1.5620216-5.108151-3.4357883-.1784495-.309084-.5081008-.4996339-.865-.5h-30.316c-.3568992.0003661-.6865505.190916-.865.5-1.079576 1.8737667-2.9656343 3.1423464-5.10815099 3.4357883-2.14251669.2934418-4.30021326-.4213001-5.84384901-1.9357883h4.895c.3147573 0 .61114562-.1481942.8-.4z" fill="#000"></path>
    </g>
  </g>
</svg>
